<svg width="14" height="17" viewBox="0 0 14 17" fill="none" xmlns="http://www.w3.org/2000/svg">
<path d="M9.75 9C7.68 9 6 10.68 6 12.75C6 14.82 7.68 16.5 9.75 16.5C11.82 16.5 13.5 14.82 13.5 12.75C13.5 10.68 11.82 9 9.75 9ZM10.9875 14.5125L9.375 12.9V10.5H10.125V12.5925L11.5125 13.98L10.9875 14.5125ZM10.5 2.25H8.115C7.8 1.38 6.975 0.75 6 0.75C5.025 0.75 4.2 1.38 3.885 2.25H1.5C0.675 2.25 0 2.925 0 3.75V15C0 15.825 0.675 16.5 1.5 16.5H6.0825C5.63878 16.0693 5.27781 15.5609 5.0175 15H1.5V3.75H3V6H9V3.75H10.5V7.56C11.0325 7.635 11.535 7.7925 12 8.01V3.75C12 2.925 11.325 2.25 10.5 2.25ZM6 3.75C5.5875 3.75 5.25 3.4125 5.25 3C5.25 2.5875 5.5875 2.25 6 2.25C6.4125 2.25 6.75 2.5875 6.75 3C6.75 3.4125 6.4125 3.75 6 3.75Z" fill="white"/>
</svg>
