<svg width="18" height="22" viewBox="0 0 18 22" fill="none" xmlns="http://www.w3.org/2000/svg">
<path fill-rule="evenodd" clip-rule="evenodd" d="M16.2001 0.199951H1.8001C1.48184 0.199951 1.17661 0.326379 0.951569 0.551423C0.726526 0.776467 0.600098 1.08169 0.600098 1.39995V20.6C0.600098 20.9182 0.726526 21.2234 0.951569 21.4485C1.17661 21.6735 1.48184 21.8 1.8001 21.8H16.2001C16.5184 21.8 16.8236 21.6735 17.0486 21.4485C17.2737 21.2234 17.4001 20.9182 17.4001 20.6V1.39995C17.4001 1.08169 17.2737 0.776467 17.0486 0.551423C16.8236 0.326379 16.5184 0.199951 16.2001 0.199951ZM12.6001 17H5.4001V14.6H12.6001V17ZM12.6001 12.2H5.4001V9.79995H12.6001V12.2ZM12.6001 7.39995H5.4001V4.99995H12.6001V7.39995Z" fill="black"/>
</svg>
