<svg width="26" height="20" viewBox="0 0 26 20" fill="none" xmlns="http://www.w3.org/2000/svg">
<path d="M2.49996 0.666748C1.88112 0.666748 1.28763 0.912581 0.850043 1.35017C0.412459 1.78775 0.166626 2.38124 0.166626 3.00008V15.8334H2.49996C2.49996 16.7617 2.86871 17.6519 3.52509 18.3083C4.18146 18.9647 5.0717 19.3334 5.99996 19.3334C6.92822 19.3334 7.81846 18.9647 8.47483 18.3083C9.13121 17.6519 9.49996 16.7617 9.49996 15.8334H16.5C16.5 16.7617 16.8687 17.6519 17.5251 18.3083C18.1815 18.9647 19.0717 19.3334 20 19.3334C20.9282 19.3334 21.8185 18.9647 22.4748 18.3083C23.1312 17.6519 23.5 16.7617 23.5 15.8334H25.8333V10.0001L22.3333 5.33342H18.8333V0.666748M10.6666 3.00008L15.3333 7.66675L10.6666 12.3334V8.83342H3.66663V6.50008H10.6666M18.8333 7.08342H21.75L24.0483 10.0001H18.8333M5.99996 14.0834C6.46409 14.0834 6.90921 14.2678 7.2374 14.596C7.56558 14.9242 7.74996 15.3693 7.74996 15.8334C7.74996 16.2975 7.56558 16.7427 7.2374 17.0709C6.90921 17.399 6.46409 17.5834 5.99996 17.5834C5.53583 17.5834 5.09071 17.399 4.76252 17.0709C4.43433 16.7427 4.24996 16.2975 4.24996 15.8334C4.24996 15.3693 4.43433 14.9242 4.76252 14.596C5.09071 14.2678 5.53583 14.0834 5.99996 14.0834ZM20 14.0834C20.4641 14.0834 20.9092 14.2678 21.2374 14.596C21.5656 14.9242 21.75 15.3693 21.75 15.8334C21.75 16.2975 21.5656 16.7427 21.2374 17.0709C20.9092 17.399 20.4641 17.5834 20 17.5834C19.5358 17.5834 19.0907 17.399 18.7625 17.0709C18.4343 16.7427 18.25 16.2975 18.25 15.8334C18.25 15.3693 18.4343 14.9242 18.7625 14.596C19.0907 14.2678 19.5358 14.0834 20 14.0834Z" fill="white"/>
</svg>
